#!OML:ASF I:\Actors\actors\Patient Classification 2\Patient 1\Session 1\actor1.ASF
:FULLY-SPECIFIED
:DEGREES
609
root -0.490579 18.7292 5.45815 2.53807 -1.62176 -1.22364
lowerback 2.97269 0.440301 -1.51004
upperback -0.763596 0.548268 0.833287
thorax -2.47321 0.302488 1.67495
lowerneck -8.21586 -2.54547 -1.84577
upperneck 30.7981 -5.50395 7.07711
head 11.6385 -1.87613 2.27483
rclavicle 8.55784e-015 -1.12065e-014
rhumerus -48.7253 22.5145 -99.6798
rradius 97.9034
rwrist 12.8483
rhand -17.1862 -47.523
rfingers 7.12502
rthumb 9.05571 -77.3086
lclavicle 8.55784e-015 -1.12065e-014
lhumerus -11.9668 -43.7594 81.6645
lradius 127.452
lwrist 18.3101
lhand -17.6083 -55.6244
lfingers 7.12502
lthumb 8.64838 -25.8215
rfemur 0 0 0
rtibia 0
rfoot 0 0
rtoes 0
lfemur -6.21424 -6.14284 -13.7332
ltibia 21.9791
lfoot -22.6627 15.4429
ltoes -54.8334
610
root -0.491281 18.7292 5.45884 2.55013 -1.58938 -1.2056
lowerback 2.96529 0.4331 -1.48739
upperback -0.771159 0.539701 0.836216
thorax -2.47628 0.297982 1.6657
lowerneck -8.27934 -2.57669 -1.79607
upperneck 30.8756 -5.52727 6.94988
head 11.6781 -1.89266 2.2163
rclavicle 3.25976e-015 -1.26353e-014
rhumerus -48.7292 22.5527 -99.6525
rradius 97.8939
rwrist 12.8688
rhand -17.0551 -47.4565
rfingers 7.12502
rthumb 9.18222 -77.2366
lclavicle 3.25976e-015 -1.26353e-014
lhumerus -12.3429 -43.1175 81.651
lradius 126.419
lwrist 19.2217
lhand -17.6288 -54.2821
lfingers 7.12502
lthumb 8.6286 -24.4784
rfemur 0 0 0
rtibia 0
rfoot 0 0
rtoes 0
lfemur -6.22637 -6.15711 -13.7493
ltibia 21.9663
lfoot -22.6147 15.4584
ltoes -54.846
611
root -0.492633 18.7293 5.45899 2.55254 -1.61073 -1.16697
lowerback 2.94881 0.451848 -1.50502
upperback -0.760007 0.564069 0.828771
thorax -2.45663 0.310088 1.66683
lowerneck -8.38917 -2.6271 -1.74561
upperneck 30.9957 -5.57824 6.80974
head 11.7456 -1.92111 2.1495
rclavicle -1.31462e-014 1.6524e-014
rhumerus -48.7105 22.5877 -99.6093
rradius 97.907
rwrist 12.8554
rhand -17.0392 -47.4518
rfingers 7.12502
rthumb 9.19755 -77.2312
lclavicle -1.31462e-014 1.6524e-014
lhumerus -12.5997 -42.4963 81.4761
lradius 125.443
lwrist 20.3625
lhand -17.3287 -52.8902
lfingers 7.12502
lthumb 8.91813 -23.0987
rfemur 0 0 0
rtibia 0
rfoot 0 0
rtoes 0
lfemur -6.21926 -6.1806 -13.7952
ltibia 21.9527
lfoot -22.6155 15.5128
ltoes -54.8439
612
root -0.493404 18.7289 5.45913 2.53647 -1.59879 -1.12342
lowerback 2.92015 0.455676 -1.52602
upperback -0.729652 0.568802 0.830191
thorax -2.40972 0.312118 1.68014
lowerneck -8.50315 -2.67888 -1.76382
upperneck 31.1234 -5.63782 6.73518
head 11.8217 -1.95342 2.11824
rclavicle -2.3167e-015 -1.01877e-015
rhumerus -48.6439 22.6517 -99.56
rradius 97.9048
rwrist 12.8359
rhand -17.0926 -47.5323
rfingers 7.12502
rthumb 9.14598 -77.314
lclavicle -2.3167e-015 -1.01877e-015
lhumerus -12.8321 -41.8674 81.2551
lradius 124.544
lwrist 21.5265
lhand -16.952 -50.8627
lfingers 7.12502
lthumb 9.28166 -21.087
rfemur 0 0 0
rtibia 0
rfoot 0 0
rtoes 0
lfemur -6.20087 -6.20698 -13.8417
ltibia 21.9428
lfoot -22.6339 15.5051
ltoes -54.8347
613
root -0.494394 18.7285 5.45887 2.5307 -1.60851 -1.11172
lowerback 2.8966 0.452416 -1.53054
upperback -0.713225 0.565092 0.851198
thorax -2.37971 0.310092 1.70468
lowerneck -8.59258 -2.71686 -1.80684
upperneck 31.2369 -5.67656 6.67851
head 11.8872 -1.97817 2.10056
rclavicle -1.0604e-014 1.99786e-014
rhumerus -48.5775 22.7498 -99.5352
rradius 97.8867
rwrist 12.8295
rhand -17.0704 -47.6326
rfingers 7.12502
rthumb 9.16739 -77.4133
lclavicle -1.0604e-014 1.99786e-014
lhumerus -13.069 -41.2121 80.9993
lradius 123.694
lwrist 22.4947
lhand -16.5598 -48.1754
lfingers 7.12502
lthumb 9.6601 -18.4169
rfemur 0 0 0
rtibia 0
rfoot 0 0
rtoes 0
lfemur -6.18969 -6.17222 -13.8508
ltibia 21.9336
lfoot -22.6266 15.4813
ltoes -54.8136
614
root -0.495837 18.7288 5.45842 2.55149 -1.61789 -1.1468
lowerback 2.85796 0.439364 -1.48069
upperback -0.717572 0.550443 0.868819
thorax -2.36153 0.302072 1.69576
lowerneck -8.65351 -2.73346 -1.7718
upperneck 31.3664 -5.68327 6.56266
head 11.9473 -1.98697 2.05143
rclavicle -9.8544e-015 -4.31114e-015
rhumerus -48.5284 22.8488 -99.5567
rradius 97.8632
rwrist 12.7662
rhand -17.0314 -47.6488
rfingers 7.12502
rthumb 9.20504 -77.4279
lclavicle -9.8544e-015 -4.31114e-015
lhumerus -13.3193 -40.5369 80.683
lradius 122.856
lwrist 23.2481
lhand -15.9899 -45.3176
lfingers 7.12502
lthumb 10.2099 -15.5854
rfemur 0 0 0
rtibia 0
rfoot 0 0
rtoes 0
lfemur -6.20844 -6.15758 -13.8023
ltibia 21.9265
lfoot -22.6275 15.4683
ltoes -54.7611
